<svg width="35" height="35" viewBox="0 0 35 35" fill="none" xmlns="http://www.w3.org/2000/svg">
<path fill-rule="evenodd" clip-rule="evenodd" d="M32.8125 17.5918C32.8125 9.13492 25.9554 2.2793 17.5 2.2793C9.04458 2.2793 2.1875 9.13346 2.1875 17.5918C2.1875 25.2335 7.7875 31.5685 15.1083 32.7191V22.0193H11.2175V17.5903H15.1054V14.2187C15.1054 10.3833 17.3921 8.26138 20.8892 8.26138C22.5663 8.26138 24.3177 8.56034 24.3177 8.56034V12.3287H22.3869C20.4852 12.3287 19.8902 13.5099 19.8902 14.7203V17.5933H24.1369L23.4588 22.0208H19.8917V32.7206C27.2125 31.5714 32.811 25.2378 32.811 17.5933L32.8125 17.5918Z" fill="white"/>
</svg>
