<svg width="32" height="32" viewBox="0 0 32 32" fill="none" xmlns="http://www.w3.org/2000/svg">
<g clip-path="url(#clip0_1_32985)">
<path d="M18.032 9.16841C18.032 9.21926 18.032 9.21926 17.9812 9.27011L17.8291 9.32096C17.8291 9.32096 17.7783 9.27011 17.728 9.32096C17.6771 9.37181 17.6771 9.37181 17.6771 9.42213C17.6771 9.47298 17.6771 9.47298 17.6771 9.47298C17.6771 9.47298 17.728 9.47298 17.6771 9.52383C17.6263 9.52383 17.5754 9.47298 17.5246 9.52383C17.4743 9.57468 17.4234 9.62553 17.4743 9.62553C17.4743 9.67585 17.5246 9.67585 17.5246 9.7267C17.5246 9.77755 17.5754 9.77755 17.4743 9.8284C17.4234 9.87872 17.3726 9.87872 17.4234 9.92957C17.4743 9.98042 17.4743 9.98042 17.4743 10.0313C17.4743 10.0821 17.6263 10.0313 17.6263 10.0313L17.6771 9.98042L17.7783 9.92957C17.8291 9.92957 17.88 9.87872 17.9308 9.87872C17.9812 9.87872 17.9812 9.8284 17.9812 9.8284C17.9812 9.8284 17.9812 9.7267 17.9812 9.67585C17.9812 9.67585 18.032 9.62553 18.032 9.57468L18.0829 9.52383L18.1337 9.47298C18.1337 9.47298 18.1337 9.42213 18.1846 9.42213C18.2349 9.42213 18.2857 9.37181 18.2857 9.42213C18.3366 9.47298 18.2857 9.37181 18.3366 9.47298C18.3874 9.57468 18.3874 9.57468 18.3874 9.62553C18.3874 9.67585 18.4383 9.67585 18.3874 9.7267C18.3874 9.77755 18.3366 9.77755 18.2857 9.8284C18.2349 9.87872 18.2857 9.77755 18.2349 9.8284C18.1846 9.87872 18.2349 9.92957 18.2349 9.92957C18.2349 9.98042 18.3366 9.98042 18.2349 9.98042C18.1337 9.98042 18.1846 9.92957 18.1337 9.98042C18.0829 10.0313 18.1846 10.0821 18.1846 10.0821H18.2857C18.2857 10.0821 18.2857 10.1324 18.3366 10.1324C18.3366 10.1324 18.3366 10.1324 18.2349 10.1833C18.1846 10.2341 18.1337 10.285 18.0829 10.285C18.0829 10.3358 18.1337 10.285 18.1846 10.285C18.2349 10.285 18.2857 10.2341 18.2857 10.1833C18.3366 10.1833 18.3366 10.1324 18.3874 10.1324C18.4383 10.1324 18.3874 10.1324 18.4383 10.1324C18.4886 10.1324 18.5903 10.1324 18.5903 10.1324C18.6412 10.1324 18.6412 10.1324 18.6915 10.0821C18.7423 10.0821 18.7423 10.0821 18.7932 10.0313C18.844 10.0313 18.8949 9.92957 18.8949 9.92957C18.8949 9.92957 18.9452 9.87872 18.9452 9.8284C18.9961 9.77755 18.8949 9.7267 18.8949 9.67585C18.844 9.67585 18.7932 9.62553 18.7932 9.57468C18.7932 9.52383 18.6412 9.42213 18.5903 9.42213C18.5395 9.37181 18.5395 9.32096 18.5395 9.32096L18.4886 9.16841L18.4383 9.06724C18.4886 9.06724 18.5395 9.01639 18.5395 8.96554C18.5395 8.91522 18.5903 8.86437 18.4886 8.86437C18.3874 8.86437 18.4383 8.91522 18.3874 8.86437C18.3874 8.81352 18.4383 8.81352 18.4383 8.71182C18.4383 8.66149 18.2857 8.71182 18.2857 8.71182C18.2857 8.71182 18.1846 8.81352 18.1337 8.81352L18.0829 8.86437H17.9812C17.9812 8.86437 17.9308 8.86437 17.9308 8.91522L18.032 9.01639C18.032 9.01639 18.0829 9.01639 18.0829 9.06724C18.032 9.06724 18.032 9.06724 18.032 9.16841Z" fill="#FAC746"/>
<path d="M16.5687 6.47915C16.6196 6.37745 16.6704 6.12373 16.8225 6.07341C16.975 5.97171 17.127 5.81969 17.1779 5.66714C17.2287 5.51512 17.3807 5.41342 17.5328 5.3631C17.6853 5.31225 17.8373 5.05853 17.6853 5.05853C17.4824 5.05853 17.3807 5.00768 17.2287 5.05853C17.0762 5.10937 15.9601 5.10937 15.8584 5.10937C15.8081 5.10937 15.7573 5.10937 15.7573 5.10937C15.2498 5.10937 15.0469 5.00768 14.8949 5.10937C14.7424 5.2614 14.5903 5.31225 14.3366 5.2614C14.0829 5.21055 14.0829 5.10937 13.6772 5.1597C13.5755 5.1597 13.5246 5.1597 13.4743 5.21055C13.3217 5.05853 13.3217 4.95683 13.1189 5.05853C12.916 5.1597 12.8652 5.21055 12.7131 5.1597C12.5606 5.1597 12.4594 5.1597 12.3577 5.1597C12.2565 5.1597 12.2565 5.1597 12.0537 5.1597C11.8503 5.1597 11.8 5.10937 11.6474 5.1597C11.4954 5.21055 11.5971 5.31225 11.3434 5.31225C11.0896 5.31225 10.9879 5.2614 10.8359 5.31225C10.6834 5.3631 10.4805 5.3631 10.3793 5.41342C10.2776 5.51512 10.2268 5.46427 10.3793 5.56597C10.5313 5.66714 10.7342 5.61629 10.8359 5.66714C10.9371 5.71799 11.0896 5.76884 10.8359 5.76884C10.5822 5.76884 10.3793 5.71799 10.3285 5.76884C10.2776 5.81969 9.92274 5.81969 10.1765 5.87001C10.4297 5.97171 10.9371 5.97171 11.0388 5.97171C11.14 5.97171 11.2925 5.97171 11.2925 5.97171C11.2925 5.97171 11.3937 6.07341 11.4445 5.97171C11.4954 5.87001 11.5971 5.81969 11.7491 5.76884C11.952 5.66714 12.0537 5.46427 12.2565 5.51512C12.4594 5.61629 12.3577 5.51512 12.5606 5.56597C12.4086 5.61629 12.2565 5.66714 12.2565 5.66714C12.2565 5.66714 12.1548 5.71799 12.4086 5.87001C12.6114 6.02256 13.068 6.07341 13.1697 6.12373C13.2709 6.17458 13.4743 6.22543 13.4743 6.37745C13.4743 6.53 13.5246 6.53 13.3726 6.68202C13.2206 6.83404 13.2206 6.83404 13.1697 6.98659C12.916 7.24031 12.916 7.29064 12.8652 7.49403C12.8143 7.6969 12.6623 7.6969 12.8652 7.89977C13.068 8.10264 13.1189 8.30552 13.1697 8.35637C13.2709 8.40721 13.5755 8.25467 13.6263 8.35637C13.6772 8.45754 13.9812 8.15349 13.9812 8.10264C13.9812 8.0518 14.0321 7.84892 14.1846 7.79808C14.3366 7.74723 14.6915 7.5952 14.7424 7.5952C14.7932 7.5952 14.7932 7.5952 15.0978 7.44318C15.4018 7.29064 15.6556 7.08776 15.8081 7.03692C15.9601 6.98659 16.2138 6.88489 16.3155 6.83404C16.4167 6.88489 16.5184 6.58032 16.5687 6.47915Z" fill="#FAC746"/>
<path d="M9.36097 5.71848C9.41182 5.71848 9.46267 5.76933 9.513 5.76933C9.56385 5.76933 9.56385 5.76933 9.56385 5.76933C9.56385 5.76933 9.61469 5.71848 9.61469 5.66763L9.56385 5.56646C9.41182 5.51561 9.36097 5.51561 9.31012 5.56646C9.25928 5.56646 9.31012 5.66763 9.36097 5.71848Z" fill="#FAC746"/>
<path d="M9.86732 5.76964C9.91817 5.76964 9.91817 5.76964 9.9685 5.76964C10.0193 5.76964 10.0193 5.82049 10.0702 5.76964C10.121 5.71879 10.121 5.61709 10.0702 5.61709C10.0193 5.61709 9.9685 5.56677 9.91817 5.61709C9.86732 5.61709 9.86732 5.66794 9.86732 5.66794V5.71879C9.81647 5.71879 9.76562 5.76964 9.76562 5.76964C9.76562 5.71879 9.81647 5.76964 9.86732 5.76964Z" fill="#FAC746"/>
<path d="M9.56187 6.0226C9.4607 6.0226 9.4607 6.07345 9.4607 6.0226C9.4607 5.97175 9.4607 5.9209 9.40985 5.9209C9.359 5.9209 9.30815 5.9209 9.30815 5.9209C9.25731 5.9209 9.25731 5.97175 9.25731 5.97175C9.20698 5.97175 9.15613 5.97175 9.10528 5.97175C9.05443 5.97175 9.00358 6.0226 8.95326 6.0226C8.90241 6.0226 8.85156 5.97175 8.85156 6.0226C8.85156 6.07345 8.90241 6.12377 8.95326 6.17462C9.00358 6.22547 9.05443 6.22547 9.10528 6.27632C9.15613 6.27632 9.20698 6.32664 9.25731 6.27632C9.30815 6.27632 9.30815 6.17462 9.359 6.17462C9.40985 6.17462 9.40985 6.17462 9.4607 6.22547C9.56187 6.22547 9.56187 6.27632 9.61272 6.22547C9.66357 6.17462 9.76475 6.22547 9.7139 6.17462C9.66357 6.12377 9.66357 6.0226 9.56187 6.0226Z" fill="#FAC746"/>
<path d="M11.0339 6.12377C10.9831 6.07345 10.9831 6.0226 10.831 6.07345C10.6785 6.07345 10.6282 6.07345 10.5265 6.07345C10.4248 6.07345 10.4248 6.07345 10.3236 6.07345C10.2219 6.07345 10.1716 6.07345 10.1207 6.07345C10.0699 6.07345 10.0699 6.0226 10.019 6.0226C9.96817 6.0226 9.96818 6.0226 9.91785 5.97175C9.867 5.9209 9.7653 5.9209 9.71445 5.9209C9.61328 5.9209 9.61328 5.97175 9.61328 5.97175C9.66413 5.97175 9.7653 5.97175 9.81615 6.0226C9.867 6.07345 9.91785 6.0226 9.867 6.07345C9.81615 6.12377 9.81615 6.07345 9.81615 6.12377C9.81615 6.17462 9.71445 6.17462 9.7653 6.22547C9.81615 6.22547 9.91785 6.22547 9.96818 6.27632C10.019 6.32664 10.019 6.27632 10.1207 6.27632C10.2219 6.27632 10.2727 6.32664 10.3236 6.32664C10.3744 6.32664 10.5773 6.32664 10.6282 6.32664C10.6785 6.32664 10.7802 6.27632 10.7802 6.27632C10.7802 6.27632 10.8814 6.27632 10.9322 6.22547C10.9831 6.17462 11.0848 6.12377 11.0339 6.12377Z" fill="#FAC746"/>
<path d="M8.54921 5.97254C8.54921 5.92169 8.49888 5.82052 8.39719 5.87084C8.29549 5.92169 8.34634 5.87084 8.24516 5.92169C8.14347 5.97254 8.04229 5.97254 8.04229 5.97254C7.88975 5.92169 7.88975 5.92169 7.88975 5.87084C7.88975 5.82052 7.94059 5.82052 7.88975 5.76967C7.88975 5.76967 7.88975 5.76967 7.8389 5.76967C7.78857 5.76967 7.68687 5.71882 7.58518 5.76967C7.53485 5.82052 7.53485 5.71882 7.484 5.82052C7.43315 5.92169 7.33198 5.92169 7.28113 5.92169C7.23028 5.92169 7.23028 5.92169 7.12858 5.92169C7.02741 5.92169 6.97656 5.92169 6.97656 5.97254C6.97656 5.97254 6.97656 6.02339 7.07826 6.07424C7.12858 6.07424 7.28113 6.12456 7.33198 6.12456C7.38231 6.12456 7.484 6.17541 7.484 6.17541C7.53485 6.17541 7.53485 6.22626 7.63603 6.22626C7.73772 6.22626 7.94059 6.17541 7.99144 6.17541C8.04229 6.17541 8.14347 6.12456 8.24516 6.17541C8.29549 6.17541 8.39719 6.17541 8.44804 6.17541C8.49888 6.12456 8.54921 6.07424 8.60006 6.07424C8.54921 6.07424 8.54921 6.02339 8.54921 5.97254Z" fill="#FAC746"/>
<path d="M9.00613 6.27637C8.75293 6.27637 8.54953 6.27637 8.54953 6.32669C8.54953 6.37754 8.65123 6.42839 8.54953 6.42839C8.44836 6.42839 8.44836 6.37754 8.39751 6.42839C8.34666 6.47924 8.34666 6.58041 8.39751 6.58041C8.44836 6.58041 8.8541 6.58041 8.8541 6.58041C8.8541 6.58041 8.9558 6.53009 8.9558 6.47924C9.00613 6.53009 9.10782 6.27637 9.00613 6.27637Z" fill="#FAC746"/>
<path d="M13.0668 19.6704C12.8639 19.5184 12.9656 19.4676 12.7627 19.3659C12.5593 19.2647 12.6102 19.2139 12.4073 19.163C12.2044 19.1122 12.2044 18.9093 12.0015 18.9601C11.7987 19.011 11.6461 18.859 11.4941 18.8081C11.3421 18.7573 11.0375 18.5035 10.9867 18.3515C10.8855 18.199 10.7329 17.9453 10.5301 17.7932C10.3272 17.6412 10.6318 17.8441 10.3272 17.6412C10.0226 17.4887 10.0226 17.4887 9.81976 17.3875C9.61689 17.2858 9.51519 17.0321 9.51519 17.0321C9.51519 17.0321 9.61689 17.0321 9.26147 16.9309C8.90658 16.7783 8.85573 16.6772 8.70371 16.6772C8.55116 16.6772 8.90658 16.5246 8.34829 16.6772C7.79052 16.8292 7.73968 16.728 7.5368 16.9309C7.5368 16.9309 7.68883 16.88 7.5368 17.0321C7.38426 17.1846 7.48595 16.9812 7.38426 17.1338C7.28308 17.2858 7.43511 17.1338 7.28308 17.2858C7.13054 17.4383 7.13054 17.3875 7.13054 17.5395C7.08021 17.6915 7.23223 17.6412 7.13054 17.8949C7.02936 18.1486 7.02936 18.3007 7.02936 18.3515C7.02936 18.4018 7.23223 18.4018 7.02936 18.6052C6.82649 18.7573 6.92767 18.6052 6.82649 18.7573C6.72479 18.9093 6.67395 19.011 6.62362 19.2139C6.52192 19.4167 6.47107 19.3155 6.62362 19.6196C6.77564 19.8733 6.97851 19.6704 6.87682 20.0259C6.72479 20.3808 6.67395 20.4825 6.82649 20.6853C6.97851 20.8882 7.28308 20.939 7.38426 21.0402C7.48595 21.1419 7.5368 21.1928 7.63798 21.2939C7.73967 21.3956 7.9934 21.5477 8.04424 21.6494C8.09457 21.7505 8.19627 21.9031 8.24712 22.0043C8.29744 22.1059 8.09457 21.9534 8.24712 22.258C8.39914 22.5625 8.14542 23.222 8.24712 23.4249C8.34829 23.6277 8.19627 23.6277 8.29744 23.8815C8.39914 24.1352 8.19627 24.034 8.29744 24.3889C8.39914 24.7443 8.60201 24.998 8.60201 25.1501C8.60201 25.3021 8.55116 25.6067 8.60201 25.6575C8.65286 25.7084 8.55116 25.9621 8.60201 26.1649C8.65286 26.3678 9.21115 27.2302 9.36317 27.3827C9.51519 27.5347 9.61689 27.6359 9.71806 27.7376C9.81976 27.8393 10.5301 27.8896 10.4792 27.7376C10.3781 27.5856 10.0226 27.129 10.0226 27.129C10.0226 27.129 9.92146 26.9256 9.92146 26.8753C9.92146 26.7736 9.97178 26.317 9.97178 26.1649C9.97178 26.0124 9.97178 25.6067 9.97178 25.6067C9.97178 25.6067 10.0735 25.505 10.1747 25.4546C10.2764 25.4038 10.4792 25.2009 10.4792 25.2009L10.6821 25.1501C10.6821 25.1501 10.5809 24.9472 10.6821 24.8455C10.7838 24.7443 10.885 24.4906 10.885 24.4906L11.1895 24.3381C11.1895 24.3381 11.3924 23.9832 11.4433 23.8815C11.4941 23.7803 11.6461 23.4249 11.6461 23.4249C11.6461 23.4249 11.5953 23.3237 11.6461 23.222C11.697 23.1208 11.7987 22.8671 11.7987 22.8671C11.7987 22.8671 11.6461 22.8163 11.7987 22.7654C11.9507 22.7146 12.2044 22.5625 12.2044 22.5625C12.2044 22.5625 12.6102 22.5117 12.661 22.1568C12.7119 21.8014 12.813 21.8522 12.813 21.4465C12.813 21.0402 12.813 20.8882 12.813 20.8882L13.0159 20.4316C12.9147 20.5836 13.3205 19.8225 13.0668 19.6704Z" fill="#FAC746"/>
<mask id="mask0_1_32985" style="mask-type:luminance" maskUnits="userSpaceOnUse" x="0" y="0" width="32" height="32">
<path d="M0 0H32V32H0V0Z" fill="white"/>
</mask>
<g mask="url(#mask0_1_32985)">
<path d="M32.0273 15.0833C31.9748 14.2976 31.8696 13.46 31.7124 12.7267C31.5027 11.6791 31.1878 10.684 30.7683 9.74134C30.3482 8.7987 29.8761 7.85606 29.2994 7.01786C28.9319 6.4421 28.5124 5.91829 28.0929 5.44697C27.8832 5.18507 27.6208 4.92316 27.3585 4.66126C26.6241 3.92803 25.8371 3.29924 24.9975 2.72348C24.1585 2.14719 23.2143 1.62338 22.2696 1.25703C21.3254 0.838203 20.2767 0.52381 19.2799 0.314394C18.2306 0.104978 17.1287 0 16.0273 0C14.9254 0 13.8241 0.104978 12.7748 0.314394C11.726 0.52381 10.7292 0.838203 9.78452 1.25703C8.84035 1.67587 7.89618 2.14719 7.05715 2.72348C6.21759 3.29924 5.4306 3.98052 4.69618 4.66126C4.27667 5.08009 3.85715 5.55141 3.48967 6.02273C3.22734 6.33712 2.96501 6.704 2.75526 7.07035C2.5455 7.38474 2.33574 7.69859 2.17856 8.01299C1.86366 8.58929 1.54875 9.21753 1.28642 9.79383C0.86691 10.7365 0.552005 11.7841 0.342249 12.7792C0.132493 13.8263 0.0273438 14.9264 0.0273438 16.026C0.0273438 17.1261 0.132493 18.2256 0.342249 19.2733C0.552005 20.3209 0.86691 21.316 1.28642 22.2587C1.70648 23.2013 2.17856 24.1439 2.75526 24.9821C3.33249 25.8198 4.01434 26.6055 4.69618 27.3387C5.4306 28.072 6.21759 28.7008 7.05715 29.2765C7.89618 29.8528 8.84035 30.3766 9.78452 30.743C10.7292 31.1618 11.778 31.4762 12.7748 31.6856C13.8241 31.895 14.9254 32 16.0273 32C17.1287 32 18.2306 31.895 19.2799 31.6856C20.3287 31.4762 21.3254 31.1618 22.2696 30.743C23.2143 30.3241 24.1585 29.8528 24.9975 29.2765C25.8371 28.7008 26.6241 28.0195 27.3585 27.3387C28.0929 26.658 28.7222 25.8198 29.2994 24.9821C29.8761 24.1439 30.4008 23.2013 30.7683 22.2587C31.1878 21.316 31.5027 20.2684 31.7124 19.2733C31.9222 18.2256 32.0273 17.1261 32.0273 16.026C32.0273 15.6596 32.0273 15.3452 32.0273 15.0833ZM31.3975 15.9215C31.2929 15.8166 31.2929 15.7121 31.345 15.6596L31.3975 15.6071C31.3975 15.7121 31.3975 15.8166 31.3975 15.9215ZM15.9748 31.3193C7.47667 31.3193 0.552005 24.4058 0.552005 15.9215C0.552005 13.4075 1.12924 11.0509 2.2306 9.00812C2.33574 9.00812 2.5455 8.90368 2.5455 8.90368C2.5455 8.90368 2.70268 9.06061 2.59808 9.21753C2.49293 9.375 2.5455 9.32251 2.49293 9.53193C2.38832 9.79383 2.38832 10.4221 2.38832 10.4746C2.38832 10.5271 2.28317 10.684 2.2306 10.8414C2.12599 10.9459 1.75851 11.4172 1.75851 11.6266C1.70648 11.8366 1.6539 12.1504 1.81108 12.4123C1.96827 12.6742 2.02084 12.6742 2.07341 12.8837C2.07341 13.0411 2.12599 13.0931 2.12599 13.5124C2.12599 13.9313 2.07341 13.9838 2.2306 14.1932C2.38832 14.4026 2.44089 14.5076 2.5455 14.5595C2.65065 14.6645 2.75526 14.5595 2.75526 14.5595C2.75526 14.5595 2.70268 14.2976 2.65065 14.2457C2.59808 14.1932 2.5455 13.9838 2.5455 13.9313C2.5455 13.8788 2.5455 13.6169 2.5455 13.6169C2.5455 13.6169 2.5455 13.5124 2.59808 13.5124C2.65065 13.5124 2.80783 13.7219 2.80783 13.7219C2.80783 13.7219 2.80783 13.7744 2.91298 13.8788C3.01759 13.9838 3.07016 14.0882 3.12274 14.1407C3.12274 14.1932 3.22734 14.2976 3.22734 14.4026C3.27992 14.5076 3.33249 14.5595 3.33249 14.5595C3.33249 14.5595 3.33249 14.7695 3.33249 14.9264C3.33249 15.0833 3.48967 15.1883 3.6474 15.3452C3.80458 15.5027 3.96176 15.5547 4.11948 15.6071C4.27667 15.7121 4.74875 15.7121 4.74875 15.7121C4.74875 15.7121 4.90593 15.6596 5.01108 15.7121C5.11623 15.7641 5.32599 15.9215 5.32599 15.9215C5.32599 15.9215 5.7455 16.131 5.90268 16.2359C6.06041 16.3404 6.11298 16.1834 6.16501 16.3404C6.27016 16.4973 6.37477 16.6023 6.42734 16.7073C6.47992 16.8117 6.8474 16.7073 6.8474 16.7073C6.8474 16.7073 6.68967 16.4453 6.58507 16.3929C6.47992 16.3404 6.42734 16.131 6.42734 16.0785C6.42734 16.026 6.53249 15.7121 6.47992 15.6596C6.42734 15.6596 6.21759 15.5027 6.11298 15.5027C6.00783 15.5027 5.90268 15.5027 5.85065 15.5027C5.79808 15.5027 5.85065 15.2927 5.90268 15.2408C5.95526 15.1883 6.16501 14.717 6.11298 14.717C6.06041 14.717 6.11298 14.612 5.90268 14.6645C5.7455 14.717 5.64035 14.8739 5.53574 14.9264C5.4306 14.9789 5.32599 15.0308 5.16826 15.0308C5.01108 15.0308 4.8539 15.0308 4.80133 14.9264C4.64415 14.8739 4.539 14.3501 4.539 14.3501C4.539 14.3501 4.59157 14.0363 4.64415 13.8788C4.69618 13.7219 5.01108 13.355 5.11623 13.303C5.27341 13.303 5.48317 13.1981 5.69293 13.1981C5.90268 13.1981 6.06041 13.1456 6.16501 13.1981C6.32274 13.2505 6.6371 13.0931 6.79482 13.1981C6.89943 13.303 7.00458 13.355 7.00458 13.46C7.00458 13.5644 6.952 13.7219 7.00458 13.8263C7.10919 13.9313 7.26691 14.0882 7.26691 13.9313C7.26691 13.7744 7.26691 13.4075 7.26691 13.355C7.26691 13.303 7.37152 12.9886 7.47667 12.9361C7.58182 12.8837 7.63385 12.5698 7.79157 12.5173C7.94875 12.4123 8.42084 12.2029 8.42084 12.2029C8.42084 12.2029 8.6306 11.8366 8.6306 11.7316C8.6306 11.6266 9.10268 11.1553 9.10268 11.1553C9.15526 11.1553 9.52274 11.1034 9.62734 10.9984C9.73249 10.8934 9.78507 10.684 9.88967 10.5795C9.99482 10.4746 10.152 10.4221 10.3092 10.4221C10.4669 10.4221 10.8864 10.2652 10.8864 10.2652C10.8864 10.2652 10.8864 10.1082 10.7292 10.0032C10.5715 9.89827 10.6241 9.58442 10.7292 9.53193C10.8338 9.47944 11.0436 9.375 11.1488 9.42695C11.2539 9.47944 11.4637 9.6369 11.4637 9.79383C11.4637 9.95076 11.5157 10.0032 11.6734 10.0032C11.8306 10.0557 11.9878 10.0032 11.9878 9.89827C11.9878 9.79383 11.9878 9.53193 11.8832 9.47944C11.8306 9.42695 11.6734 9.21753 11.726 9.16504C11.778 9.1131 11.9357 9.16504 11.8832 8.7987C11.8306 8.43182 11.778 8.17045 11.778 8.17045C11.778 8.17045 11.8306 7.43723 11.6208 7.54167C11.4111 7.59416 11.4637 7.64665 11.2539 7.75108C11.0436 7.90855 11.0436 8.11797 10.939 7.85606C10.7813 7.59416 10.7292 7.33225 10.7292 7.33225C10.7292 7.33225 10.7813 7.22727 10.5715 7.22727C10.3618 7.22727 10.3618 7.33225 10.2572 7.33225C10.152 7.33225 10.152 7.33225 9.94225 7.59416C9.78507 7.85606 9.62734 8.27489 9.52274 8.32738C9.41759 8.37987 9.15526 8.5368 9.05065 8.58929C8.9455 8.69372 8.52599 8.37987 8.31623 8.32738C8.10593 8.27489 7.58182 7.75108 7.68642 7.69859C7.79157 7.59416 7.8436 7.33225 8.15851 7.22727C8.47341 7.12284 8.9455 6.91342 8.99808 6.91342C9.05065 6.91342 9.52274 6.75595 9.52274 6.75595C9.52274 6.75595 9.26041 6.59903 9.31244 6.49405C9.36501 6.38961 9.52274 6.07522 9.52274 6.07522C9.52274 6.07522 9.52274 5.8658 9.57477 5.8658C9.57477 5.8658 9.67992 5.81331 9.8371 5.81331C9.8371 5.8658 9.8371 5.8658 9.8371 5.8658C9.8371 5.91829 9.8371 5.91829 9.88967 5.97078C9.88967 6.02273 9.88967 6.02273 9.94225 6.07522C9.99482 6.12771 9.94225 6.28463 9.8371 6.33712C9.73249 6.38961 9.8371 6.33712 9.78507 6.38961C9.73249 6.4421 9.62734 6.49405 9.67992 6.54654C9.67992 6.59903 9.73249 6.59903 9.73249 6.65152C9.73249 6.704 9.73249 6.80844 9.67992 6.86093C9.62734 6.91342 9.62734 6.86093 9.57477 6.91342C9.52274 6.96537 9.47016 7.01786 9.47016 7.01786C9.47016 7.07035 9.52274 7.12284 9.57477 7.12284C9.62734 7.12284 9.62734 7.01786 9.67992 7.01786C9.78507 7.01786 9.78507 7.07035 9.8371 7.07035C9.88967 7.07035 9.99482 7.12284 9.94225 7.07035C9.88967 7.01786 9.88967 6.86093 9.88967 6.80844C9.88967 6.80844 9.8371 6.704 9.94225 6.65152C10.0469 6.59903 10.0469 6.59903 10.0994 6.54654C10.2046 6.49405 10.2572 6.4421 10.2572 6.38961C10.2572 6.33712 10.3092 6.18019 10.3618 6.18019C10.3618 6.18019 10.3618 6.12771 10.4669 6.07522C10.5715 6.02273 10.6241 5.97078 10.6767 6.02273C10.7292 6.07522 10.8864 6.07522 10.939 6.12771C10.9916 6.18019 11.0962 6.28463 11.0436 6.33712C11.0436 6.38961 10.9916 6.4421 10.939 6.49405C10.8864 6.59903 10.6767 6.704 10.5195 6.75595C10.3092 6.80844 10.3092 6.80844 10.2572 6.86093C10.2046 6.91342 10.4669 7.01786 10.5195 7.01786C10.5715 7.01786 10.6767 7.01786 10.7292 7.07035C10.7813 7.12284 10.8864 7.22727 10.9916 7.27976C11.0962 7.33225 11.2539 7.33225 11.3059 7.38474C11.3585 7.43723 11.4111 7.22727 11.4111 7.17532C11.4111 7.12284 11.3585 7.01786 11.4637 7.07035C11.5683 7.12284 11.5157 7.12284 11.6208 7.12284C11.726 7.12284 11.6734 6.65152 11.726 6.65152C11.778 6.65152 12.3027 6.65152 12.3027 6.65152L12.3553 6.59903C12.3553 6.59903 12.3027 6.49405 12.2501 6.4421L12.1455 6.33712C12.1455 6.33712 12.0404 6.23214 12.0404 6.18019L11.8306 6.12771C11.8306 6.12771 11.8832 5.97078 11.8832 5.91829C11.8832 5.91829 11.8832 5.81331 11.778 5.81331C11.6734 5.81331 11.6208 5.76082 11.6208 5.76082L11.5157 5.65639C11.5157 5.65639 11.5157 5.6039 11.4111 5.55141C11.3059 5.49892 11.3059 5.44697 11.2013 5.44697C11.0962 5.44697 10.8864 5.49892 10.8864 5.49892C10.8338 5.49892 10.8338 5.49892 10.7292 5.49892C10.6241 5.49892 10.4669 5.39448 10.4669 5.44697C10.4143 5.44697 10.4143 5.44697 10.3092 5.44697C10.2572 5.44697 10.2046 5.49892 10.152 5.55141C10.152 5.49892 10.0994 5.44697 9.99482 5.39448C9.88967 5.2895 9.88967 5.39448 9.67992 5.44697C9.52274 5.49892 9.47016 5.44697 9.47016 5.49892C9.41759 5.55141 9.47016 5.6039 9.47016 5.6039C9.47016 5.65639 9.57477 5.55141 9.47016 5.65639C9.36501 5.76082 9.26041 5.8658 9.20783 5.8658C9.15526 5.8658 9.05065 5.91829 9.05065 5.97078C9.05065 6.02273 9.10268 6.02273 9.10268 6.12771C9.05065 6.18019 9.10268 6.23214 9.05065 6.23214C8.99808 6.28463 9.26041 6.23214 8.99808 6.28463C8.73574 6.33712 8.73574 6.38961 8.52599 6.38961C8.31623 6.38961 8.26366 6.33712 8.10593 6.33712C8.0539 6.33712 8.00133 6.33712 7.94875 6.33712C7.94875 6.28463 7.89618 6.18019 7.94875 6.18019C8.00133 6.18019 8.0539 6.18019 8.10593 6.18019C8.15851 6.18019 8.21108 6.23214 8.21108 6.18019C8.21108 6.12771 8.21108 6.07522 8.26366 6.07522C8.31623 6.07522 8.42084 6.07522 8.36827 5.97078C8.31623 5.8658 8.31623 5.81331 8.31623 5.76082C8.31623 5.70887 8.36827 5.55141 8.42084 5.55141L8.52599 5.44697C8.52599 5.44697 8.36827 5.44697 8.26366 5.49892C8.15851 5.55141 8.0539 5.55141 8.00133 5.6039C7.89618 5.6039 7.8436 5.6039 7.79157 5.6039C7.739 5.6039 7.68642 5.6039 7.68642 5.55141C7.63385 5.55141 7.52924 5.39448 7.42409 5.39448C7.37152 5.39448 7.37152 5.34199 7.21434 5.34199C7.10919 5.34199 7.10919 5.2895 7.00458 5.2895C6.8474 5.2895 6.89943 5.2895 6.79482 5.34199C6.53249 5.44697 6.53249 5.49892 6.47992 5.49892C6.42734 5.55141 6.42734 5.6039 6.32274 5.65639C6.21759 5.70887 6.11298 5.65638 6.11298 5.70887C6.11298 5.76082 6.16501 5.81331 6.16501 5.8658C6.21759 5.91829 6.32274 5.97078 6.32274 5.97078C6.32274 5.97078 6.53249 5.8658 6.58507 5.8658C6.6371 5.8658 6.79482 5.76082 6.79482 5.81331C6.8474 5.8658 6.8474 5.8658 6.8474 5.91829C6.79482 5.97078 6.74225 6.02273 6.74225 6.07522C6.68967 6.12771 6.68967 6.12771 6.68967 6.23214C6.68967 6.28463 6.6371 6.28463 6.6371 6.38961C6.47992 6.33712 6.47992 6.33712 6.37477 6.33712C6.27016 6.33712 6.21759 6.28463 6.16501 6.28463C6.11298 6.28463 6.21759 6.28463 5.95526 6.23214C5.69293 6.18019 5.64035 6.12771 5.53574 6.12771C5.37856 6.12771 5.27341 6.12771 5.22084 6.18019C5.16826 6.23214 4.59157 6.28463 4.59157 6.28463C4.59157 6.28463 4.539 6.18019 4.32924 6.18019C4.27667 6.18019 4.27667 6.18019 4.22409 6.18019C7.00458 2.671 11.2539 0.52381 15.9748 0.52381C20.6436 0.52381 24.7878 2.61851 27.6208 5.8658C27.5683 5.97078 27.5683 5.97078 27.3585 5.8658C27.0436 5.65639 26.7287 5.44697 26.6241 5.6039C26.5189 5.81331 26.5189 5.97078 26.3618 6.02273C26.204 6.07522 26.2566 6.02273 25.9417 6.12771C25.6273 6.23214 25.4176 6.28463 25.3124 6.33712C25.2073 6.38961 24.8929 6.4421 24.4729 6.4421C24.0534 6.4421 24.3683 6.18019 23.8436 6.23214C23.3189 6.28463 23.1618 6.38961 23.004 6.28463C22.8469 6.18019 22.6371 6.02273 22.5319 6.02273C22.4273 6.02273 22.2176 6.07522 22.165 6.12771C22.0599 6.23214 22.0078 6.12771 21.5878 6.23214C21.1683 6.33712 21.1683 6.33712 21.0111 6.49405C20.8008 6.704 20.8534 6.65152 20.8008 6.80844C20.6962 7.01786 20.9059 7.01786 20.591 7.17532C20.2767 7.33225 20.1189 7.27976 20.0664 7.48918C20.0143 7.69859 19.9092 7.80357 20.0664 7.90855C20.2241 8.01299 20.3287 8.01299 20.4338 8.01299C20.539 8.01299 20.7488 7.85606 20.8008 7.80357C20.9059 7.75108 21.1157 7.75108 21.1157 7.90855C21.1157 8.06548 21.0111 8.17045 21.1157 8.32738C21.2208 8.48431 21.3254 8.5368 21.378 8.43182C21.4306 8.32738 21.4832 8.2224 21.5352 8.17045C21.5878 8.06548 21.6929 8.06548 21.7975 7.9605C21.9027 7.85606 22.0599 7.75108 21.9027 7.64665C21.7455 7.54167 21.5878 7.43723 21.5878 7.43723C21.5878 7.43723 21.7975 7.17532 21.8501 7.12284C21.9553 7.07035 22.2176 6.91342 22.3222 6.91342C22.4273 6.91342 22.4273 6.91342 22.4273 6.91342C22.4273 6.91342 22.5845 7.01786 22.4273 7.12284C22.2696 7.22727 22.2176 6.91342 22.2696 7.22727C22.3222 7.48918 22.4273 7.54167 22.4799 7.69859C22.5319 7.85606 22.3748 7.90855 22.2696 8.06548C22.165 8.2224 22.2176 8.2224 22.165 8.37987C22.1124 8.5368 22.0599 8.7987 22.0599 8.7987C22.0599 8.7987 21.9553 8.95563 21.7455 8.95563C21.5352 8.95563 21.4832 8.90368 21.378 8.90368C21.2734 8.90368 21.1683 8.7987 21.0631 8.7987C20.9585 8.7987 20.8008 8.74621 20.8008 8.74621C20.8008 8.74621 20.8534 8.48431 20.7488 8.43182C20.6436 8.37987 20.539 8.27489 20.539 8.27489C20.539 8.27489 20.4864 8.48431 20.4864 8.5368C20.4864 8.64178 20.4338 8.74621 20.4338 8.74621C20.4338 8.74621 20.0143 8.85119 20.0143 8.90368C20.0143 8.95563 20.0143 9.06061 19.9092 9.21753C19.8046 9.375 20.0143 9.1131 19.8046 9.375C19.5422 9.58442 19.1222 9.74134 19.1222 9.74134C19.1222 9.74134 18.9124 9.68885 18.9124 9.79383C18.9124 9.89827 18.965 10.0557 19.0702 10.1082C19.1748 10.1602 19.1222 9.95076 19.1748 10.1602C19.2273 10.3701 19.1748 10.3176 19.2273 10.4746C19.2799 10.6315 19.2799 10.6315 19.2799 10.6315C19.2799 10.6315 19.3845 10.684 19.0176 10.6315C18.6501 10.5795 18.965 10.3701 18.6501 10.5795C18.3357 10.789 18.4929 10.4746 18.3357 10.789C18.178 11.1034 18.3357 11.3128 18.3357 11.3128L18.2832 11.4697C18.2832 11.4697 18.3878 11.5747 18.2832 11.6266C18.178 11.7316 18.178 11.7316 18.178 11.7316C18.178 11.7316 18.3357 11.941 18.4404 11.941C18.5455 11.941 18.3878 11.7841 18.5455 11.941C18.6501 12.0979 18.7027 12.2029 18.8599 12.2029C19.0176 12.2029 19.2273 12.2029 19.2799 12.0979C19.332 11.9935 19.332 11.8885 19.4897 11.8366C19.6469 11.7841 19.8046 11.5747 19.8046 11.5747L19.9092 11.2603C19.9092 11.2603 20.1189 10.9984 20.1715 11.0509C20.2241 11.1553 20.2767 11.1553 20.4338 10.9459C20.6436 10.7365 20.6962 10.6315 20.7488 10.5795C20.8534 10.5271 20.8534 10.5271 20.8534 10.5271C20.8534 10.5271 20.8534 10.5271 20.9059 10.5271C20.9059 10.5795 20.9585 10.5795 20.9585 10.6315C21.0111 10.684 21.0111 10.7365 21.0631 10.789C21.1157 10.8415 21.1157 10.8414 21.1683 10.8934C21.2208 10.9459 21.2208 10.9459 21.2734 10.9984C21.3254 11.0509 21.4306 11.1034 21.4832 11.1034C21.5352 11.1553 21.6404 11.2078 21.6929 11.2603C21.7455 11.3128 21.8501 11.5747 21.8501 11.6266C21.8501 11.6266 21.7975 11.6791 21.7455 11.7316C21.6929 11.7841 21.6404 11.6791 21.5352 11.7316C21.4306 11.7841 21.378 11.6791 21.378 11.7316C21.3254 11.7841 21.378 11.8366 21.4306 11.8885C21.4832 11.941 21.4832 11.8885 21.5352 11.941C21.5878 11.9935 21.5878 11.9935 21.6404 11.9935C21.6929 11.9935 21.7455 11.9935 21.7455 11.8885C21.7975 11.8366 21.7975 11.7316 21.7975 11.7316C21.7975 11.7316 21.7975 11.7316 21.8501 11.6791C21.9027 11.6266 21.9027 11.6266 21.9553 11.6266C22.0078 11.6266 22.0599 11.4697 22.0599 11.4697C22.0599 11.4697 22.0078 11.3647 21.9553 11.3647C21.9553 11.3647 21.8501 11.2603 21.9553 11.2603C22.0599 11.2603 22.0599 11.2603 22.1124 11.3128C22.165 11.3647 22.2176 11.2078 22.1124 11.1553C22.0078 11.1034 21.9553 11.1034 21.9027 11.0509C21.8501 10.9984 21.7975 10.9984 21.7455 10.9459C21.6929 10.8934 21.6929 10.8414 21.6404 10.8414C21.5352 10.789 21.4832 10.789 21.4306 10.789C21.378 10.7365 21.378 10.5795 21.3254 10.5795C21.2734 10.5271 21.2734 10.5271 21.2208 10.4746C21.2208 10.4746 21.2208 10.4221 21.1683 10.4221H21.2208C21.3254 10.4221 21.3254 10.3176 21.4306 10.4746C21.5352 10.6315 21.5878 10.7365 21.6929 10.789C21.7975 10.8934 22.0599 10.9984 22.0599 10.9984C22.0599 10.9984 22.165 11.1034 22.165 11.2078C22.165 11.3128 22.0599 11.3647 22.2176 11.4697C22.3748 11.5747 22.165 11.3647 22.3748 11.5747C22.5319 11.7841 22.4799 11.8366 22.5319 11.941C22.5845 12.046 22.7422 12.1504 22.7422 12.1504L23.0566 12.046C23.0566 12.046 22.952 11.8366 22.952 11.7316C22.952 11.6266 23.0566 11.5222 23.0566 11.5222L23.3189 11.6791C23.3189 11.6791 23.2664 11.7316 23.3715 11.8366C23.4241 11.941 23.2664 11.8366 23.4241 11.941C23.5813 12.046 23.8436 12.046 23.8436 12.046C23.8436 12.046 23.9488 11.9935 24.1059 12.0979C24.2631 12.1504 24.0534 12.1504 24.2631 12.1504C24.4729 12.2029 24.6832 12.2029 24.7352 12.3079C24.7878 12.4123 24.8929 12.4648 24.7878 12.5698C24.6832 12.6742 24.8929 12.3598 24.6832 12.6742C24.4729 12.9886 24.5254 13.0411 24.4729 13.0931C24.3683 13.1981 24.2631 13.303 24.2631 13.303C24.2631 13.303 24.1585 13.355 24.0008 13.355C23.8436 13.355 23.7385 13.4075 23.6338 13.4075C23.5287 13.4075 23.3715 13.46 23.2143 13.4075C23.0566 13.355 22.8994 13.2505 22.8994 13.2505C22.8994 13.2505 22.7422 13.1981 22.5845 13.1981C22.4273 13.2505 22.4273 13.2505 22.4273 13.2505C22.4273 13.2505 22.2176 13.355 22.0078 13.303C21.7975 13.2505 21.6929 13.1456 21.5878 13.0931C21.4832 13.0411 21.3254 13.0411 21.2734 12.9361C21.2208 12.8312 21.1157 12.5698 21.1157 12.5698C21.1157 12.5698 21.0111 12.3598 20.9059 12.3598C20.8008 12.3598 20.6436 12.2029 20.4864 12.3598C20.3287 12.5173 20.3287 12.5173 20.0664 12.5698C19.8046 12.6218 19.5943 12.6742 19.5943 12.6742C19.5943 12.6742 19.4897 12.6742 19.2799 12.6742C19.0702 12.6742 19.2273 12.6742 19.0702 12.6742C18.9124 12.6742 18.8078 12.5173 18.6501 12.7267C18.4929 12.8837 18.178 13.0931 18.1254 13.1981C18.0734 13.303 17.9157 13.4075 17.9157 13.5644C17.8637 13.7219 17.9157 13.9313 17.9157 13.9313C17.9157 13.9313 17.5488 14.1932 17.4962 14.2457C17.391 14.3501 17.339 14.3501 17.2338 14.5076C17.1292 14.6645 17.0241 14.9789 17.0241 15.2408C17.0241 15.5027 17.1813 15.4502 17.0241 15.7641C16.8669 16.0785 16.8143 16.1834 16.8143 16.2879C16.8143 16.3929 16.6046 16.3404 16.8143 16.6023C17.0241 16.9167 17.0767 16.9167 17.2338 17.0736C17.391 17.283 17.4962 17.3355 17.6013 17.4924C17.7059 17.6499 18.1254 17.8593 18.1254 17.8593C18.1254 17.8593 18.5455 17.6499 18.7027 17.6499C18.8599 17.7024 18.9124 17.6499 19.0176 17.7024C19.1222 17.7543 19.332 17.7543 19.4897 17.7543C19.6469 17.7543 19.5943 17.6499 19.8046 17.6499C20.0143 17.6499 20.1715 17.7024 20.3287 17.8068C20.4864 17.9118 20.8534 18.1737 20.8008 18.3306C20.7488 18.4876 20.6436 18.8544 20.6436 19.1163C20.6962 19.3782 20.7488 19.4302 20.8534 19.5877C20.9585 19.7446 21.0631 19.8496 21.1683 20.0065C21.2734 20.1634 21.378 20.6872 21.4832 20.7397C21.6929 20.8447 21.2208 21.1586 21.2208 21.2635C21.2208 21.3685 21.1683 21.4729 21.2208 21.6299C21.2734 21.8398 21.4306 21.9443 21.3254 22.1537C21.2208 22.3631 21.4832 22.5731 21.4832 22.6775C21.4832 22.7825 21.4832 22.8869 21.4832 23.0963C21.4832 23.3063 21.5352 23.5682 21.6404 23.7251C21.7455 23.882 21.7975 24.7727 22.1124 24.7727C22.4273 24.7202 22.6897 24.6153 22.8994 24.5628C23.1092 24.5108 23.3189 24.3534 23.4767 24.1964C23.6864 23.987 23.8436 23.9345 23.8962 23.8295C23.9488 23.7251 24.0534 23.6201 24.1059 23.3582C24.2111 23.0963 24.3683 22.6775 24.4208 22.73C24.5254 22.835 24.6832 22.6775 24.6832 22.3631C24.6832 21.9968 24.5254 21.8918 24.6832 21.8398C24.8404 21.7873 24.9975 21.6824 25.1027 21.5779C25.2599 21.4729 25.4696 21.211 25.4696 21.1586C25.4696 21.1066 25.5222 20.8447 25.4696 20.5303C25.4176 20.2159 25.5222 19.954 25.4696 19.8496C25.4176 19.7446 25.5222 19.2733 25.4696 19.2208C25.4176 19.1163 25.4176 19.0114 25.6273 18.8544C25.8371 18.697 25.9417 18.4876 26.0994 18.3306C26.2566 18.1737 26.5189 18.1212 26.6241 17.9118C26.7287 17.7024 26.8338 17.283 26.8338 17.1786C26.8338 17.0736 26.991 16.9167 26.5715 16.9692C26.152 17.0211 26.0994 17.1261 25.8897 16.9692C25.6799 16.7592 25.4176 16.5498 25.4176 16.4973C25.365 16.3929 25.3124 16.026 25.0501 15.8166C24.7878 15.6071 24.6832 15.5027 24.5254 15.2927C24.3683 15.0308 24.3157 14.8214 24.2631 14.717C24.2111 14.612 24.0534 14.2976 24.1059 14.1932C24.1585 14.0882 24.4208 13.9313 24.4208 13.9313C24.4208 13.9313 24.7352 14.2457 24.8929 14.4551C25.0501 14.6645 25.2599 14.7695 25.3124 15.0308C25.365 15.2927 25.4176 15.3977 25.4696 15.7121C25.5222 16.026 25.7845 16.2879 25.7845 16.2879C25.7845 16.2879 25.8897 16.3929 25.9943 16.4453C26.0994 16.4973 26.5189 16.3929 26.5715 16.3404C26.6761 16.2879 27.1488 16.026 27.2008 15.9215C27.2534 15.8166 27.4105 15.6596 27.5157 15.6596C27.6208 15.6071 27.9352 15.4502 27.9352 15.4502C27.9352 15.4502 28.145 15.1358 28.0929 15.0833C28.0404 14.9789 27.9878 14.9789 27.8306 14.8214C27.6729 14.6645 27.6208 14.5076 27.5683 14.4551C27.4631 14.4026 26.5189 14.1407 26.4664 14.0363C26.4143 13.9313 26.4143 13.8788 26.4143 13.8788C26.4143 13.8788 26.991 14.0363 27.2008 14.0363C27.4105 14.0363 27.1488 13.8788 27.4105 14.0363C27.6208 14.1932 27.8306 14.1932 27.9352 14.1932C28.0404 14.1932 27.9878 14.2457 28.145 14.3501C28.3553 14.4551 28.8273 14.4551 28.9845 14.4551C29.1417 14.4551 29.2994 14.4026 29.404 14.612C29.5092 14.8214 29.5092 14.8214 29.6664 14.9789C29.8241 15.1883 29.8761 15.1358 29.9813 15.2927C30.0864 15.4502 30.1385 15.5027 30.191 15.6596C30.2436 15.8166 30.4008 16.3404 30.4534 16.4453C30.5059 16.5498 30.5585 16.7073 30.6105 16.9692C30.7157 17.2305 30.8208 17.388 30.9254 17.4405C31.0306 17.4924 31.1878 17.5449 31.345 17.388C31.3975 17.3355 31.4501 17.388 31.5027 17.388C30.8208 24.9297 24.1585 31.3193 15.9748 31.3193Z" fill="#FAC746"/>
</g>
</g>
<defs>
<clipPath id="clip0_1_32985">
<rect width="32" height="32" fill="white"/>
</clipPath>
</defs>
</svg>
