<svg width="11" height="11" viewBox="0 0 11 11" fill="none" xmlns="http://www.w3.org/2000/svg">
<path d="M10.5 5.5C10.5 8.26142 8.26142 10.5 5.5 10.5C2.73858 10.5 0.5 8.26142 0.5 5.5C0.5 2.73858 2.73858 0.5 5.5 0.5C8.26142 0.5 10.5 2.73858 10.5 5.5Z" stroke="#A3A3A3"/>
<path d="M4.64062 5.29375C4.64062 5.06593 4.833 4.88125 5.07031 4.88125H5.92969C6.167 4.88125 6.35938 5.06593 6.35938 5.29375V8.18125C6.35938 8.40907 6.167 8.59375 5.92969 8.59375H5.07031C4.833 8.59375 4.64062 8.40907 4.64062 8.18125V5.29375Z" fill="#A3A3A3"/>
<path d="M6.35938 3.23125C6.35938 3.68688 5.97462 4.05625 5.5 4.05625C5.02538 4.05625 4.64062 3.68688 4.64062 3.23125C4.64062 2.77562 5.02538 2.40625 5.5 2.40625C5.97462 2.40625 6.35938 2.77562 6.35938 3.23125Z" fill="#A3A3A3"/>
</svg>
