<svg width="32" height="32" viewBox="0 0 32 32" fill="none" xmlns="http://www.w3.org/2000/svg">
<path d="M10.9141 16.2656C10.5202 15.8164 10.1006 15.3371 9.67716 14.7974C6.56533 14.0756 4.9597 12.0967 3.85799 8.76312C1.61882 1.98695 3.91777 2.15176 5.76922 2.98139C5.73235 2.34729 5.70889 1.68135 5.70162 0.983009C3.37586 -0.230993 -0.760016 0.160639 1.81715 8.93966C4.30549 15.8689 7.99107 16.7717 11.4515 16.8846C11.2828 16.6863 11.1035 16.4807 10.9141 16.2656Z" fill="#FAC746"/>
<path d="M24.9228 0.458008H6.59376C6.58649 15.8082 13.9996 14.8579 13.9415 20.5541L15.7588 20.5457L17.5756 20.5541C17.5175 14.8579 24.9306 15.8082 24.9228 0.458008Z" fill="#FAC746"/>
<path d="M25.8134 0.983009C25.8061 1.68191 25.7832 2.34729 25.7458 2.98139C27.5972 2.15176 29.8967 1.98639 27.657 8.76312C26.5553 12.0967 24.9502 14.0756 21.8378 14.7974C21.4138 15.3371 20.9942 15.8164 20.6009 16.2656C20.4115 16.4812 20.2322 16.6863 20.0635 16.8846C23.5239 16.7717 27.2101 15.8689 29.6978 8.93966C32.2744 0.160639 28.1391 -0.230993 25.8134 0.983009Z" fill="#FAC746"/>
<path d="M21.3064 27.0022C21.3064 26.9754 21.3047 26.9491 21.3025 26.9229H10.2144C10.2122 26.9491 10.2105 26.9754 10.2105 27.0022V29.6894L9.34961 31.5163H22.1679L21.3064 29.6894V27.0022Z" fill="#FAC746"/>
<path d="M18.4911 24.2076H17.5726V21.4416L15.7558 21.4326L13.9384 21.4416V24.2076H13.0205C12.0054 24.2076 11.1836 25.026 11.1836 26.0344H20.328C20.328 25.026 19.5056 24.2076 18.4911 24.2076Z" fill="#FAC746"/>
</svg>
