<svg width="35" height="35" viewBox="0 0 35 35" fill="none" xmlns="http://www.w3.org/2000/svg">
<path d="M23.8802 4.73958C25.5708 4.74458 27.1907 5.41839 28.3862 6.61383C29.5816 7.80927 30.2554 9.42919 30.2604 11.1198V23.8802C30.2554 25.5708 29.5816 27.1907 28.3862 28.3862C27.1907 29.5816 25.5708 30.2554 23.8802 30.2604H11.1198C9.42931 30.255 7.80961 29.5811 6.61425 28.3857C5.41889 27.1904 4.74497 25.5707 4.73958 23.8802V11.1198C4.74458 9.42919 5.41839 7.80927 6.61383 6.61383C7.80927 5.41839 9.42919 4.74458 11.1198 4.73958H23.8802ZM23.8802 2.1875H11.1198C6.20667 2.1875 2.1875 6.20667 2.1875 11.1198V23.8802C2.1875 28.7933 6.20667 32.8125 11.1198 32.8125H23.8802C28.7933 32.8125 32.8125 28.7933 32.8125 23.8802V11.1198C32.8125 6.20667 28.7933 2.1875 23.8802 2.1875Z" fill="white"/>
<path d="M25.7958 11.1199C25.54 11.1269 25.2853 11.0826 25.0469 10.9896C24.8085 10.8966 24.5912 10.7568 24.4078 10.5783C24.2243 10.3999 24.0785 10.1865 23.979 9.95075C23.8794 9.71501 23.8281 9.46171 23.8281 9.20581C23.8281 8.94991 23.8794 8.6966 23.979 8.46086C24.0785 8.22512 24.2243 8.01173 24.4078 7.83329C24.5912 7.65486 24.8085 7.515 25.0469 7.42198C25.2853 7.32897 25.54 7.28468 25.7958 7.29174C26.2942 7.30551 26.7677 7.5132 27.1154 7.87066C27.4632 8.22811 27.6577 8.70712 27.6577 9.20581C27.6577 9.70449 27.4632 10.1835 27.1154 10.541C26.7677 10.8984 26.2942 11.1061 25.7958 11.1199Z" fill="white"/>
<path d="M17.5 12.3958C18.1703 12.3958 18.834 12.5279 19.4533 12.7844C20.0725 13.0409 20.6352 13.4168 21.1092 13.8908C21.5832 14.3648 21.9591 14.9275 22.2156 15.5467C22.4721 16.166 22.6042 16.8297 22.6042 17.5C22.6042 18.1703 22.4721 18.834 22.2156 19.4533C21.9591 20.0725 21.5832 20.6352 21.1092 21.1092C20.6352 21.5832 20.0725 21.9591 19.4533 22.2156C18.834 22.4721 18.1703 22.6042 17.5 22.6042C16.1463 22.6042 14.848 22.0664 13.8908 21.1092C12.9336 20.152 12.3958 18.8537 12.3958 17.5C12.3958 16.1463 12.9336 14.848 13.8908 13.8908C14.848 12.9336 16.1463 12.3958 17.5 12.3958ZM17.5 9.84375C15.4694 9.84375 13.522 10.6504 12.0862 12.0862C10.6504 13.522 9.84375 15.4694 9.84375 17.5C9.84375 19.5306 10.6504 21.478 12.0862 22.9138C13.522 24.3496 15.4694 25.1562 17.5 25.1562C19.5306 25.1562 21.478 24.3496 22.9138 22.9138C24.3496 21.478 25.1562 19.5306 25.1562 17.5C25.1562 15.4694 24.3496 13.522 22.9138 12.0862C21.478 10.6504 19.5306 9.84375 17.5 9.84375Z" fill="white"/>
</svg>
