<svg width="431" height="393" viewBox="0 0 431 393" fill="none" xmlns="http://www.w3.org/2000/svg">
<mask id="path-1-outside-1_1_33313" maskUnits="userSpaceOnUse" x="0" y="135.839" width="431" height="204" fill="black">
<rect fill="white" y="135.839" width="431" height="204"/>
<path fill-rule="evenodd" clip-rule="evenodd" d="M429 137.839H2V271.076V275.891H2.56275C10.5618 309.992 102.841 336.892 215.5 336.892C328.159 336.892 420.438 309.992 428.437 275.891H429V271.076V137.839Z"/>
</mask>
<path fill-rule="evenodd" clip-rule="evenodd" d="M429 137.839H2V271.076V275.891H2.56275C10.5618 309.992 102.841 336.892 215.5 336.892C328.159 336.892 420.438 309.992 428.437 275.891H429V271.076V137.839Z" fill="#131740"/>
<path d="M2 137.839V135.839H0V137.839H2ZM429 137.839H431V135.839H429V137.839ZM2 275.891H0V277.891H2V275.891ZM2.56275 275.891L4.50989 275.435L4.14789 273.891H2.56275V275.891ZM428.437 275.891V273.891H426.852L426.49 275.435L428.437 275.891ZM429 275.891V277.891H431V275.891H429ZM2 139.839H429V135.839H2V139.839ZM4 271.076V137.839H0V271.076H4ZM4 275.891V271.076H0V275.891H4ZM2.56275 273.891H2V277.891H2.56275V273.891ZM215.5 334.892C159.31 334.892 108.269 328.181 70.3372 317.258C51.3645 311.794 35.7556 305.299 24.4373 298.12C13.0637 290.906 6.33144 283.2 4.50989 275.435L0.615598 276.348C2.79358 285.633 10.5959 294.078 22.2948 301.498C34.0492 308.954 50.051 315.578 69.2303 321.101C107.603 332.152 159.031 338.892 215.5 338.892V334.892ZM426.49 275.435C424.669 283.2 417.936 290.906 406.563 298.12C395.244 305.299 379.635 311.794 360.663 317.258C322.731 328.181 271.69 334.892 215.5 334.892V338.892C271.969 338.892 323.397 332.152 361.77 321.101C380.949 315.578 396.951 308.954 408.705 301.498C420.404 294.078 428.206 285.633 430.384 276.348L426.49 275.435ZM429 273.891H428.437V277.891H429V273.891ZM427 271.076V275.891H431V271.076H427ZM427 137.839V271.076H431V137.839H427Z" fill="#164092" mask="url(#path-1-outside-1_1_33313)"/>
<path d="M215.5 259.26C274.56 259.26 328.076 248.899 366.865 232.107C386.257 223.712 402.014 213.69 412.937 202.511C423.865 191.327 430 178.932 430 165.837C430 152.741 423.865 140.347 412.937 129.163C402.014 117.983 386.257 107.961 366.865 99.5664C328.076 82.775 274.56 72.4141 215.5 72.4141C156.44 72.4141 102.924 82.775 64.1354 99.5664C44.7427 107.961 28.9857 117.983 18.0626 129.163C7.13507 140.347 1 152.741 1 165.837C1 178.932 7.13507 191.327 18.0626 202.511C28.9857 213.69 44.7427 223.712 64.1354 232.107C102.924 248.899 156.44 259.26 215.5 259.26Z" fill="#131740" stroke="#164092" stroke-width="2"/>
<path fill-rule="evenodd" clip-rule="evenodd" d="M373.903 183.571C334.834 196.891 278.335 205.26 215.496 205.26C152.656 205.26 96.1568 196.89 57.0879 183.57C63.6404 157.972 132.059 137.838 215.495 137.838C298.932 137.838 367.351 157.972 373.903 183.571Z" fill="#131740"/>
<path d="M373.903 183.571L374.225 184.518L375.101 184.219L374.871 183.323L373.903 183.571ZM57.0879 183.57L56.1191 183.322L55.8898 184.219L56.7652 184.517L57.0879 183.57ZM373.58 182.625C334.645 195.899 278.262 204.26 215.496 204.26V206.26C278.408 206.26 335.023 197.883 374.225 184.518L373.58 182.625ZM215.496 204.26C152.729 204.26 96.3457 195.898 57.4106 182.624L56.7652 184.517C95.9679 197.883 152.583 206.26 215.496 206.26V204.26ZM58.0567 183.818C59.6013 177.784 64.849 171.905 73.4063 166.469C81.9378 161.051 93.6145 156.167 107.739 152.065C135.981 143.864 173.848 138.838 215.495 138.838V136.838C173.706 136.838 135.645 141.879 107.181 150.144C92.9524 154.276 81.0812 159.225 72.334 164.781C63.6125 170.321 57.8508 176.558 56.1191 183.322L58.0567 183.818ZM215.495 138.838C257.143 138.838 295.01 143.864 323.252 152.065C337.377 156.167 349.053 161.051 357.585 166.47C366.142 171.905 371.39 177.785 372.934 183.819L374.871 183.323C373.14 176.558 367.378 170.321 358.657 164.782C349.91 159.226 338.039 154.276 323.81 150.145C295.346 141.879 257.284 136.838 215.495 136.838V138.838Z" fill="#164092"/>
<path d="M249.217 391.105H250.217V390.105V292.571V291.571H250.103C249.433 279.137 245.839 267.976 240.364 259.833C234.755 251.49 227.085 246.21 218.503 246.21C209.921 246.21 202.251 251.49 196.642 259.833C191.167 267.976 187.573 279.137 186.903 291.571H186.789V292.571V390.105V391.105H187.789H249.217Z" fill="#0D102D" stroke="#164092" stroke-width="2"/>
<line y1="-1" x2="120.632" y2="-1" transform="matrix(0.452441 0.891794 -0.452441 0.891794 48.4473 97.3857)" stroke="#164092" stroke-width="2"/>
<line y1="-1" x2="120.632" y2="-1" transform="matrix(-0.452441 0.891794 0.452441 0.891794 383.192 97.3857)" stroke="#164092" stroke-width="2"/>
<line x1="218.744" y1="73.4141" x2="218.744" y2="190.839" stroke="#164092" stroke-width="2"/>
<rect x="96.3877" y="34.46" width="13.4842" height="50.9404" fill="#131740"/>
<rect width="13.4842" height="50.9404" transform="matrix(-1 0 0 1 327.122 34.46)" fill="#131740"/>
<path d="M57.4395 0H147.334L150.331 4.49474L147.334 44.9474L60.4359 49.4421L57.4395 44.9474V0Z" fill="#164092"/>
<path d="M366.069 0H276.175L273.178 4.49474L276.175 44.9474L363.073 49.4421L366.069 44.9474V0Z" fill="#164092"/>
<rect x="60.4258" y="4.49414" width="89.8947" height="44.9474" fill="#131740"/>
<rect width="89.8947" height="44.9474" transform="matrix(-1 0 0 1 363.083 4.49414)" fill="#131740"/>
</svg>
