<svg width="35" height="35" viewBox="0 0 35 35" fill="none" xmlns="http://www.w3.org/2000/svg">
<path d="M33.9062 7.48564C32.6758 8.02024 31.3739 8.37249 30.0417 8.53126C31.4415 7.71117 32.494 6.40866 33.0021 4.86793C31.6779 5.64085 30.2313 6.1848 28.7263 6.47355C28.0919 5.80874 27.329 5.27988 26.4839 4.91913C25.6388 4.55837 24.7291 4.37324 23.8102 4.37501C20.0915 4.37501 17.08 7.34126 17.08 10.9988C17.0773 11.5075 17.1356 12.0147 17.2535 12.5096C14.5859 12.3847 11.9737 11.7043 9.58409 10.512C7.19446 9.3197 5.08002 7.64172 3.37604 5.58543C2.77855 6.59329 2.46275 7.74315 2.46167 8.9148C2.46167 11.2102 3.65896 13.2417 5.46875 14.4302C4.39624 14.4051 3.34565 14.1214 2.40625 13.6033V13.685C2.40625 16.8992 4.73229 19.5708 7.80792 20.1804C7.2293 20.334 6.63323 20.4119 6.03458 20.4123C5.61021 20.4123 5.18583 20.3715 4.76875 20.2883C5.62479 22.9206 8.11417 24.8354 11.0615 24.8894C8.22713 27.0753 4.64732 28.06 1.09375 27.6311C4.17077 29.5958 7.74755 30.635 11.3983 30.625C23.7956 30.625 30.5696 20.529 30.5696 11.7717C30.5696 11.4844 30.5608 11.1971 30.5477 10.9171C31.8623 9.98203 32.9996 8.82002 33.9062 7.48564Z" fill="white"/>
</svg>
