<svg width="188" height="197" viewBox="0 0 188 197" fill="none" xmlns="http://www.w3.org/2000/svg">
<g filter="url(#filter0_d_3484_96573)">
<path d="M8.76972 20.8923C8.21097 20.9504 7.70242 21.2408 7.36843 21.6925C7.03444 22.1442 6.90581 22.7155 7.01401 23.2668L18.0911 79.7053C23.265 106.067 36.302 130.243 55.4852 149.05L92.6301 185.467C92.9003 185.732 93.2328 185.908 93.5864 185.989C93.8442 186.048 94.1133 186.055 94.3777 186.009C94.7674 185.94 95.1364 185.756 95.4313 185.467L120.973 160.426C147.714 134.209 165.888 100.508 173.1 63.7602L181.047 23.2668C181.156 22.7155 181.027 22.1442 180.693 21.6925C180.359 21.2408 179.85 20.9504 179.292 20.8923L154.534 18.3179C139.757 16.7815 125.225 13.4353 111.265 8.35464L94.7151 2.33153C94.4927 2.2506 94.2611 2.21086 94.0307 2.21093C93.8003 2.21086 93.5687 2.2506 93.3463 2.33153L76.7963 8.35464C62.836 13.4353 48.3042 16.7815 33.5278 18.3179L8.76972 20.8923Z" fill="#131740" stroke="#164092" stroke-width="4" stroke-linejoin="round"/>
<path fill-rule="evenodd" clip-rule="evenodd" d="M108.238 91.4878L104.34 84.6484L97.5765 88.6029L77.3028 100.45C73.579 102.622 72.2901 107.452 74.4384 111.228L78.3371 118.067L85.1003 114.113L105.374 102.265C109.098 100.094 110.387 95.264 108.238 91.4878Z" fill="#164092"/>
<path fill-rule="evenodd" clip-rule="evenodd" d="M114.057 60.7906L109.378 52.5898L101.262 57.3223L76.9467 71.5358C72.475 74.1451 70.9315 79.9472 73.5253 84.469L78.2039 92.6697L86.3197 87.9373L110.635 73.7237C115.107 71.1144 116.651 65.3123 114.057 60.7906Z" fill="#164092"/>
<path fill-rule="evenodd" clip-rule="evenodd" d="M97.3466 81.4844L78.2188 92.6672L85.2365 95.8275L104.38 84.6447L97.3626 81.4844H97.3466Z" fill="#132C5C"/>
</g>
<defs>
<filter id="filter0_d_3484_96573" x="0.976562" y="0.210938" width="186.108" height="195.828" filterUnits="userSpaceOnUse" color-interpolation-filters="sRGB">
<feFlood flood-opacity="0" result="BackgroundImageFix"/>
<feColorMatrix in="SourceAlpha" type="matrix" values="0 0 0 0 0 0 0 0 0 0 0 0 0 0 0 0 0 0 127 0" result="hardAlpha"/>
<feOffset dy="4"/>
<feGaussianBlur stdDeviation="2"/>
<feComposite in2="hardAlpha" operator="out"/>
<feColorMatrix type="matrix" values="0 0 0 0 0 0 0 0 0 0 0 0 0 0 0 0 0 0 0.25 0"/>
<feBlend mode="normal" in2="BackgroundImageFix" result="effect1_dropShadow_3484_96573"/>
<feBlend mode="normal" in="SourceGraphic" in2="effect1_dropShadow_3484_96573" result="shape"/>
</filter>
</defs>
</svg>
