<svg width="212" height="223" viewBox="0 0 212 223" fill="none" xmlns="http://www.w3.org/2000/svg">
<path d="M4.76972 24.4084C4.21097 24.4665 3.70242 24.7569 3.36843 25.2086C3.03444 25.6603 2.90581 26.2316 3.01401 26.7829L16.2142 94.0389C22.3649 125.377 37.8631 154.118 60.6679 176.475L104.932 219.872C105.211 220.145 105.556 220.324 105.921 220.401C106.169 220.453 106.427 220.458 106.68 220.413C107.07 220.345 107.439 220.161 107.734 219.872L138.171 190.031C169.982 158.844 191.601 118.753 200.181 75.0376L209.652 26.7829C209.76 26.2316 209.631 25.6603 209.297 25.2086C208.963 24.7569 208.455 24.4665 207.896 24.4084L178.393 21.3406C160.753 19.5064 143.405 15.5118 126.74 9.44659L107.017 2.26903C106.795 2.18809 106.563 2.14835 106.333 2.14843C106.103 2.14835 105.871 2.18809 105.648 2.26903L85.9264 9.44659C69.2607 15.5118 51.913 19.5064 34.2731 21.3406L4.76972 24.4084Z" fill="#131740" stroke="#164092" stroke-width="4" stroke-linejoin="round"/>
</svg>
